<svg width="918" height="287" viewBox="0 0 918 287" fill="none" xmlns="http://www.w3.org/2000/svg">
<path d="M22.75 114H57.25V125.25H22.75V114ZM34 90H46V183H34V90ZM74.6852 161.7C74.6852 164.3 75.2852 166.55 76.4852 168.45C77.7852 170.35 79.5352 171.8 81.7352 172.8C84.0352 173.7 86.6352 174.15 89.5352 174.15C93.2352 174.15 96.5352 173.4 99.4352 171.9C102.435 170.4 104.785 168.3 106.485 165.6C108.285 162.8 109.185 159.6 109.185 156L111.585 165C111.585 169.4 110.235 173.05 107.535 175.95C104.935 178.85 101.685 181 97.7852 182.4C93.9852 183.8 90.1852 184.5 86.3852 184.5C82.1852 184.5 78.2352 183.65 74.5352 181.95C70.9352 180.15 68.0352 177.6 65.8352 174.3C63.6352 171 62.5352 167 62.5352 162.3C62.5352 155.6 64.8852 150.25 69.5852 146.25C74.3852 142.15 81.0352 140.1 89.5352 140.1C94.5352 140.1 98.6852 140.7 101.985 141.9C105.385 143 108.085 144.3 110.085 145.8C112.085 147.2 113.435 148.35 114.135 149.25V156.3C110.635 153.9 107.035 152.2 103.335 151.2C99.6352 150.1 95.6852 149.55 91.4852 149.55C87.5852 149.55 84.3852 150.05 81.8852 151.05C79.4852 152.05 77.6852 153.45 76.4852 155.25C75.2852 157.05 74.6852 159.2 74.6852 161.7ZM72.8852 129.9L67.0352 121.05C69.6352 119.15 73.1852 117.25 77.6852 115.35C82.2852 113.45 87.7852 112.5 94.1852 112.5C99.5852 112.5 104.285 113.35 108.285 115.05C112.385 116.65 115.535 119 117.735 122.1C120.035 125.2 121.185 129 121.185 133.5V183H109.185V135.15C109.185 132.75 108.785 130.8 107.985 129.3C107.185 127.7 106.035 126.45 104.535 125.55C103.135 124.65 101.485 124 99.5852 123.6C97.6852 123.2 95.6852 123 93.5852 123C90.1852 123 87.0852 123.4 84.2852 124.2C81.5852 125 79.2852 125.95 77.3852 127.05C75.4852 128.15 73.9852 129.1 72.8852 129.9ZM152.752 216H140.752V114H152.752V216ZM210.502 148.5C210.502 155.9 208.952 162.3 205.852 167.7C202.752 173.1 198.602 177.25 193.402 180.15C188.302 183.05 182.602 184.5 176.302 184.5C170.602 184.5 165.552 183.05 161.152 180.15C156.852 177.25 153.452 173.1 150.952 167.7C148.552 162.3 147.352 155.9 147.352 148.5C147.352 141 148.552 134.6 150.952 129.3C153.452 123.9 156.852 119.75 161.152 116.85C165.552 113.95 170.602 112.5 176.302 112.5C182.602 112.5 188.302 113.95 193.402 116.85C198.602 119.75 202.752 123.9 205.852 129.3C208.952 134.6 210.502 141 210.502 148.5ZM198.352 148.5C198.352 143.2 197.252 138.7 195.052 135C192.952 131.3 190.102 128.5 186.502 126.6C183.002 124.7 179.102 123.75 174.802 123.75C171.302 123.75 167.852 124.7 164.452 126.6C161.052 128.5 158.252 131.3 156.052 135C153.852 138.7 152.752 143.2 152.752 148.5C152.752 153.8 153.852 158.3 156.052 162C158.252 165.7 161.052 168.5 164.452 170.4C167.852 172.3 171.302 173.25 174.802 173.25C179.102 173.25 183.002 172.3 186.502 170.4C190.102 168.5 192.952 165.7 195.052 162C197.252 158.3 198.352 153.8 198.352 148.5ZM221.799 114H256.299V125.25H221.799V114ZM255.099 80.4C254.099 78.7 252.899 77.65 251.499 77.25C250.199 76.75 248.949 76.5 247.749 76.5C246.249 76.5 244.949 76.95 243.849 77.85C242.849 78.65 242.049 80.05 241.449 82.05C240.849 84.05 240.549 86.7 240.549 90V183H228.549V88.5C228.549 83 229.349 78.5 230.949 75C232.549 71.5 234.799 68.9 237.699 67.2C240.699 65.4 244.299 64.5 248.499 64.5C250.699 64.5 252.649 64.8 254.349 65.4C256.049 66 257.499 66.75 258.699 67.65C259.999 68.55 260.999 69.5 261.699 70.5L255.099 80.4ZM296.669 184.5C290.269 184.5 284.569 183 279.569 180C274.669 176.9 270.819 172.65 268.019 167.25C265.319 161.85 263.969 155.6 263.969 148.5C263.969 141.3 265.369 135 268.169 129.6C271.069 124.2 275.069 120 280.169 117C285.369 114 291.369 112.5 298.169 112.5C304.969 112.5 310.769 113.95 315.569 116.85C320.469 119.65 324.219 123.7 326.819 129C329.419 134.3 330.719 140.6 330.719 147.9C330.719 148.6 330.669 149.35 330.569 150.15C330.569 150.85 330.569 151.3 330.569 151.5H271.619V141.3H321.119L316.319 148.2C316.619 147.7 316.919 146.95 317.219 145.95C317.519 144.85 317.669 143.95 317.669 143.25C317.669 139.15 316.819 135.6 315.119 132.6C313.519 129.6 311.269 127.25 308.369 125.55C305.469 123.85 302.069 123 298.169 123C293.569 123 289.619 124 286.319 126C283.119 127.9 280.619 130.7 278.819 134.4C277.119 138 276.219 142.45 276.119 147.75C276.119 153.15 276.969 157.75 278.669 161.55C280.369 165.35 282.869 168.25 286.169 170.25C289.469 172.25 293.469 173.25 298.169 173.25C302.869 173.25 307.019 172.25 310.619 170.25C314.219 168.15 317.269 165 319.769 160.8L329.519 166.95C325.919 172.75 321.369 177.15 315.869 180.15C310.469 183.05 304.069 184.5 296.669 184.5ZM373.866 184.5C367.466 184.5 361.766 183 356.766 180C351.866 176.9 348.016 172.65 345.216 167.25C342.516 161.85 341.166 155.6 341.166 148.5C341.166 141.3 342.566 135 345.366 129.6C348.266 124.2 352.266 120 357.366 117C362.566 114 368.566 112.5 375.366 112.5C382.166 112.5 387.966 113.95 392.766 116.85C397.666 119.65 401.416 123.7 404.016 129C406.616 134.3 407.916 140.6 407.916 147.9C407.916 148.6 407.866 149.35 407.766 150.15C407.766 150.85 407.766 151.3 407.766 151.5H348.816V141.3H398.316L393.516 148.2C393.816 147.7 394.116 146.95 394.416 145.95C394.716 144.85 394.866 143.95 394.866 143.25C394.866 139.15 394.016 135.6 392.316 132.6C390.716 129.6 388.466 127.25 385.566 125.55C382.666 123.85 379.266 123 375.366 123C370.766 123 366.816 124 363.516 126C360.316 127.9 357.816 130.7 356.016 134.4C354.316 138 353.416 142.45 353.316 147.75C353.316 153.15 354.166 157.75 355.866 161.55C357.566 165.35 360.066 168.25 363.366 170.25C366.666 172.25 370.666 173.25 375.366 173.25C380.066 173.25 384.216 172.25 387.816 170.25C391.416 168.15 394.466 165 396.966 160.8L406.716 166.95C403.116 172.75 398.566 177.15 393.066 180.15C387.666 183.05 381.266 184.5 373.866 184.5ZM476.113 66H488.113V183H476.113V66ZM418.363 148.5C418.363 141 419.913 134.6 423.013 129.3C426.113 123.9 430.263 119.75 435.463 116.85C440.663 113.95 446.363 112.5 452.563 112.5C458.363 112.5 463.413 113.95 467.713 116.85C472.013 119.75 475.363 123.9 477.763 129.3C480.263 134.6 481.513 141 481.513 148.5C481.513 155.9 480.263 162.3 477.763 167.7C475.363 173.1 472.013 177.25 467.713 180.15C463.413 183.05 458.363 184.5 452.563 184.5C446.363 184.5 440.663 183.05 435.463 180.15C430.263 177.25 426.113 173.1 423.013 167.7C419.913 162.3 418.363 155.9 418.363 148.5ZM430.513 148.5C430.513 153.8 431.563 158.3 433.663 162C435.863 165.7 438.763 168.5 442.363 170.4C445.963 172.3 449.863 173.25 454.063 173.25C457.563 173.25 461.013 172.3 464.413 170.4C467.813 168.5 470.613 165.7 472.813 162C475.013 158.3 476.113 153.8 476.113 148.5C476.113 143.2 475.013 138.7 472.813 135C470.613 131.3 467.813 128.5 464.413 126.6C461.013 124.7 457.563 123.75 454.063 123.75C449.863 123.75 445.963 124.7 442.363 126.6C438.763 128.5 435.863 131.3 433.663 135C431.563 138.7 430.513 143.2 430.513 148.5ZM512.91 177C512.91 174.7 513.71 172.75 515.31 171.15C517.01 169.55 518.96 168.75 521.16 168.75C523.46 168.75 525.41 169.55 527.01 171.15C528.61 172.75 529.41 174.7 529.41 177C529.41 179.2 528.61 181.15 527.01 182.85C525.41 184.45 523.46 185.25 521.16 185.25C518.96 185.25 517.01 184.45 515.31 182.85C513.71 181.15 512.91 179.2 512.91 177ZM606.631 66H618.631V183H606.631V66ZM548.881 148.5C548.881 141 550.431 134.6 553.531 129.3C556.631 123.9 560.781 119.75 565.981 116.85C571.181 113.95 576.881 112.5 583.081 112.5C588.881 112.5 593.931 113.95 598.231 116.85C602.531 119.75 605.881 123.9 608.281 129.3C610.781 134.6 612.031 141 612.031 148.5C612.031 155.9 610.781 162.3 608.281 167.7C605.881 173.1 602.531 177.25 598.231 180.15C593.931 183.05 588.881 184.5 583.081 184.5C576.881 184.5 571.181 183.05 565.981 180.15C560.781 177.25 556.631 173.1 553.531 167.7C550.431 162.3 548.881 155.9 548.881 148.5ZM561.031 148.5C561.031 153.8 562.081 158.3 564.181 162C566.381 165.7 569.281 168.5 572.881 170.4C576.481 172.3 580.381 173.25 584.581 173.25C588.081 173.25 591.531 172.3 594.931 170.4C598.331 168.5 601.131 165.7 603.331 162C605.531 158.3 606.631 153.8 606.631 148.5C606.631 143.2 605.531 138.7 603.331 135C601.131 131.3 598.331 128.5 594.931 126.6C591.531 124.7 588.081 123.75 584.581 123.75C580.381 123.75 576.481 124.7 572.881 126.6C569.281 128.5 566.381 131.3 564.181 135C562.081 138.7 561.031 143.2 561.031 148.5ZM639.678 66H651.678V183H639.678V66ZM677.178 114H692.178L662.178 142.5L695.178 183H680.178L647.178 142.5L677.178 114Z" fill="white"/>
<g clip-path="url(#clip0_80_22)">
<path d="M866.513 65.8984C863.87 67.6387 861.485 69.2178 861.227 69.3467C860.873 69.5723 861.195 70.2812 862.71 72.7949C873.022 89.7783 879.564 108.405 881.949 127.387C883.432 139.278 883.432 148.044 881.949 159.936C879.564 178.917 873.022 197.544 862.742 214.495C861.679 216.235 860.873 217.718 860.905 217.75C860.97 217.814 863.387 219.394 866.287 221.295L871.508 224.711L873.022 222.358C882.626 207.405 890.199 187.812 893.551 169.249C895.259 160.032 895.774 153.748 895.774 143.661C895.774 136.023 895.645 133.252 895.065 128.386C892.81 109.501 887.911 93.0654 879.726 76.9521C876.954 71.4736 872.571 63.8359 871.733 63.0625C871.443 62.8047 870.122 63.5137 866.513 65.8984Z" fill="white"/>
<path d="M835.35 84.4609C832.546 86.3623 830.258 88.0059 830.258 88.1348C830.258 88.2637 831.257 90.0039 832.481 92.0019C838.895 102.572 843.245 113.98 845.533 126.259C846.726 132.769 847.145 137.022 847.145 143.661C847.145 150.3 846.726 154.554 845.533 161.063C843.245 173.342 838.895 184.75 832.481 195.32C831.257 197.318 830.258 199.059 830.258 199.187C830.29 199.381 839.958 206.052 840.57 206.277C840.86 206.374 844.953 199.735 847.145 195.546C852.075 186.265 855.975 174.985 858.102 163.964C859.552 156.358 860.003 151.621 860.003 143.661C860.003 123.068 854.331 103.217 843.245 84.9121C841.924 82.7529 840.731 80.9805 840.635 80.9805C840.506 81.0127 838.121 82.5596 835.35 84.4609Z" fill="white"/>
<path d="M804.728 104.371L799.668 107.949L801.28 110.398C803.536 113.814 807.048 121.226 808.434 125.383C811.431 134.471 812.495 144.493 811.399 153.291C810.658 159.06 808.789 166.923 808.209 166.73C808.08 166.698 792.514 154.806 773.662 140.304C754.809 125.802 739.276 113.91 739.179 113.878C738.825 113.782 735.505 121.677 734.313 125.415C731.993 132.699 730.704 142.141 731.058 148.941C731.284 153.195 732.412 158.77 734.023 163.507C735.151 166.826 738.793 174.754 739.727 175.882C740.114 176.366 740.629 176.108 745.206 173.143C748.009 171.338 750.362 169.759 750.491 169.63C750.62 169.534 749.911 167.793 748.912 165.795C746.914 161.67 745.109 156.546 744.464 152.969C743.691 148.78 743.981 139.756 745.044 135.373C745.173 134.761 749.588 138.048 779.301 160.897C798.089 175.334 813.494 187.129 813.623 187.129C814.106 187.129 819.101 175.528 820.648 170.855C826.868 151.938 825.869 131.893 817.844 114.039C815.395 108.593 810.787 100.762 810.078 100.794C809.917 100.794 807.5 102.406 804.728 104.371Z" fill="white"/>
</g>
<defs>
<clipPath id="clip0_80_22">
<rect width="165" height="165" fill="white" transform="translate(731 61)"/>
</clipPath>
</defs>
</svg>
